<svg xmlns="http://www.w3.org/2000/svg" width="261.9299011230469" height="397.1202697753906" viewBox="-14.49685287475586 -91.0113296508789 261.9299011230469 397.1202697753906"><title>Neo4j Graph Visualization</title><desc>Created using Neo4j (http://www.neo4j.com/)</desc><g class="layer relationships"><g class="relationship" transform="translate(35.46951075003926 275.49083044183595) rotate(360.8467604550168)"><path class="outline" fill="#A5ABB6" stroke="none" d="M 21.40063509461097,12.933012701892217 L 21.90063509461097,12.06698729810778 A 62.04892194596984 62.04892194596984 0 0 0 26.260182831863062,14.358280106673668 L 25.830442678457146,15.261232708170922 A 63.04892194596984 63.04892194596984 0 0 1 21.40063509461097,12.933012701892217 Z M 76.52461327864908,16.796669951671156 L 76.15030842961016,15.869364241570139 A 62.04892194596984 62.04892194596984 0 0 0 80.64053603824286,13.84611555921846 L 79.30052371724972,11.162020370968499 L 87.12676019765829,11.16676934160947 L 82.42721913290038,17.42490914355174 L 81.08720681190724,14.74081395530178 A 63.04892194596984 63.04892194596984 0 0 1 76.52461327864908,16.796669951671156"/><text text-anchor="middle" pointer-events="none" font-size="8px" fill="#000000" x="51.03146764832867" y="23.851295798678926" font-family="sans-serif">PRODUCED</text></g><g class="relationship" transform="translate(35.46951075003926 275.49083044183595) rotate(360.8467604550168)"><path class="outline" fill="#A5ABB6" stroke="none" d="M 25 0.5 L 27.801797549870656 0.5 L 27.801797549870656 -0.5 L 25 -0.5 Z M 74.69242254987066 0.5 L 77.49422009974131 0.5 L 77.49422009974131 3.5 L 84.49422009974131 0 L 77.49422009974131 -3.5 L 77.49422009974131 -0.5 L 74.69242254987066 -0.5 Z"/><text text-anchor="middle" pointer-events="none" font-size="8px" fill="#000000" x="51.247110049870656" y="3" font-family="sans-serif">DIRECTED</text></g><g class="relationship" transform="translate(35.46951075003926 275.49083044183595) rotate(360.8467604550168)"><path class="outline" fill="#A5ABB6" stroke="none" d="M 21.40063509461097,-12.933012701892217 L 21.90063509461097,-12.06698729810778 A 62.04892194596984 62.04892194596984 0 0 1 33.62802190800139,-17.303001031507307 L 33.317024173400966,-18.25341168436922 A 63.04892194596984 63.04892194596984 0 0 0 21.40063509461097,-12.933012701892217 Z M 68.87066569047363,-19.330268937995207 L 68.61775780353875,-18.362778575910845 A 62.04892194596984 62.04892194596984 0 0 1 80.64053603824286,-13.84611555921846 L 79.30052371724972,-11.162020370968499 L 87.12676019765829,-11.16676934160947 L 82.42721913290038,-17.42490914355174 L 81.08720681190724,-14.74081395530178 A 63.04892194596984 63.04892194596984 0 0 0 68.87066569047363,-19.330268937995207"/><text text-anchor="middle" pointer-events="none" font-size="8px" fill="#000000" x="51.03146764832865" y="-17.85129579867892" font-family="sans-serif">WROTE</text></g><g class="relationship" transform="translate(218.43304990508716 -16.897088406779897) rotate(204.76230539790515)"><path class="outline" fill="#A5ABB6" stroke="none" d="M 24.018736134675446,6.953439040707552 L 24.277555179777966,5.987513214418485 A 107.11924912751114 107.11924912751114 0 0 0 27.197615050603286,6.726100526110443 L 26.96605590411478,7.698921353229977 A 108.11924912751114 108.11924912751114 0 0 1 24.018736134675446,6.953439040707552 Z M 73.69693394937923,8.43853751594392 L 73.49627701573058,7.458875944288323 A 107.11924912751114 107.11924912751114 0 0 0 76.43824790740389,6.81306781586083 L 75.753883766821,3.8921697137209676 L 83.36773750249405,5.703034504857402 L 77.35073342818107,10.707598618713979 L 76.66636928759819,7.7867005165741165 A 108.11924912751114 108.11924912751114 0 0 1 73.69693394937923,8.43853751594392"/><text text-anchor="middle" pointer-events="none" font-size="8px" fill="#000000" x="50.29896529466038" y="13.124036425606747" transform="rotate(180 50.29896529466038 10.124036425606747)" font-family="sans-serif">DIRECTED</text></g><g class="relationship" transform="translate(218.43304990508716 -16.897088406779897) rotate(204.76230539790515)"><path class="outline" fill="#A5ABB6" stroke="none" d="M 24.018736134675446,-6.953439040707552 L 24.277555179777966,-5.987513214418485 A 107.11924912751114 107.11924912751114 0 0 1 32.610693637195936,-7.8677232309393474 L 32.42966769207584,-8.8512015515918 A 108.11924912751114 108.11924912751114 0 0 0 24.018736134675446,-6.953439040707552 Z M 68.19959326143785,-9.417337181753737 L 68.04978148933355,-8.428622646137427 A 107.11924912751114 107.11924912751114 0 0 1 76.43824790740389,-6.81306781586083 L 75.753883766821,-3.8921697137209676 L 83.36773750249405,-5.703034504857402 L 77.35073342818107,-10.707598618713979 L 76.66636928759819,-7.7867005165741165 A 108.11924912751114 108.11924912751114 0 0 0 68.19959326143785,-9.417337181753737"/><text text-anchor="middle" pointer-events="none" font-size="8px" fill="#000000" x="50.29896529466033" y="-7.1240364256067465" transform="rotate(180 50.29896529466033 -10.124036425606747)" font-family="sans-serif">WROTE</text></g><g class="relationship" transform="translate(14.503147034797967 -43.373250997159865) rotate(350.03905888749637)"><path class="outline" fill="#A5ABB6" stroke="none" d="M 24.018736134675446,6.953439040707552 L 24.277555179777966,5.987513214418485 A 107.20010936647597 107.20010936647597 0 0 0 27.21746017479299,6.730855514917053 L 26.98606558860557,7.7037154973827455 A 108.20010936647597 108.20010936647597 0 0 1 24.018736134675446,6.953439040707552 Z M 73.71734212408455,8.443076603039401 L 73.51683995148775,7.463383345542965 A 107.20010936647597 107.20010936647597 0 0 0 76.47878923715277,6.813417512153641 L 75.79439243212752,3.8925270634597435 L 83.40826641827607,5.703306708543717 L 77.39131831051975,10.70793811041217 L 76.7069215054945,7.787047661718273 A 108.20010936647597 108.20010936647597 0 0 1 73.71734212408455,8.443076603039401"/><text text-anchor="middle" pointer-events="none" font-size="8px" fill="#000000" x="50.319215969694255" y="13.126791073991285" font-family="sans-serif">DIRECTED</text></g><g class="relationship" transform="translate(14.503147034797967 -43.373250997159865) rotate(350.03905888749637)"><path class="outline" fill="#A5ABB6" stroke="none" d="M 24.018736134675446,-6.953439040707552 L 24.277555179777966,-5.987513214418485 A 107.20010936647597 107.20010936647597 0 0 1 32.630729549674115,-7.871671705027111 L 32.44983182777977,-8.855173618707724 A 108.20010936647597 108.20010936647597 0 0 0 24.018736134675446,-6.953439040707552 Z M 68.21988401507505,-9.42111119403836 L 68.07019009157521,-8.432378808977973 A 107.20010936647597 107.20010936647597 0 0 1 76.47878923715277,-6.813417512153641 L 75.79439243212752,-3.8925270634597435 L 83.40826641827607,-5.703306708543717 L 77.39131831051975,-10.70793811041217 L 76.7069215054945,-7.787047661718273 A 108.20010936647597 108.20010936647597 0 0 0 68.21988401507505,-9.42111119403836"/><text text-anchor="middle" pointer-events="none" font-size="8px" fill="#000000" x="50.31921596969427" y="-7.126791073991285" font-family="sans-serif">WROTE</text></g><g class="relationship" transform="translate(141.03254844865157 120.33557053482645) rotate(539.630886092501)"><path class="outline" fill="#A5ABB6" stroke="none" d="M 21.40063509461097,12.933012701892217 L 21.90063509461097,12.06698729810778 A 64.99446720870675 64.99446720870675 0 0 0 35.02605372071045,17.820546287681672 L 34.728000427711706,18.775095518749723 A 65.99446720870675 65.99446720870675 0 0 1 21.40063509461097,12.933012701892217 Z M 70.31257778024383,19.82692092901688 L 70.07142560863906,18.85643361321604 A 64.99446720870675 64.99446720870675 0 0 0 83.5137646324665,13.888176703056164 L 82.16983965620628,11.206038440739327 L 89.99607474058249,11.19937480216847 L 85.30566460081346,17.464361052811945 L 83.96173962455323,14.782222790495108 A 65.99446720870675 65.99446720870675 0 0 1 70.31257778024383,19.82692092901688"/><text text-anchor="middle" pointer-events="none" font-size="8px" fill="#000000" x="52.46279807206668" y="24.246002185948967" transform="rotate(180 52.46279807206668 21.246002185948967)" font-family="sans-serif">WROTE</text></g><g class="relationship" transform="translate(141.03254844865157 120.33557053482645) rotate(539.630886092501)"><path class="outline" fill="#A5ABB6" stroke="none" d="M 25 0.5 L 29.22830096327808 0.5 L 29.22830096327808 -0.5 L 25 -0.5 Z M 76.11892596327809 0.5 L 80.34722692655616 0.5 L 80.34722692655616 3.5 L 87.34722692655616 0 L 80.34722692655616 -3.5 L 80.34722692655616 -0.5 L 76.11892596327809 -0.5 Z"/><text text-anchor="middle" pointer-events="none" font-size="8px" fill="#000000" x="52.67361346327808" y="3" transform="rotate(180 52.67361346327808 0)" font-family="sans-serif">DIRECTED</text></g><g class="relationship" transform="translate(141.03254844865157 120.33557053482645) rotate(539.630886092501)"><path class="outline" fill="#A5ABB6" stroke="none" d="M 21.40063509461097,-12.933012701892217 L 21.90063509461097,-12.06698729810778 A 64.99446720870675 64.99446720870675 0 0 1 27.607591048994365,-14.996356709838835 L 27.19539784547225,-15.907453171784645 A 65.99446720870675 65.99446720870675 0 0 0 21.40063509461097,-12.933012701892217 Z M 78.00140755544561,-17.409200726007796 L 77.64374819618698,-16.475348605629684 A 64.99446720870675 64.99446720870675 0 0 1 83.5137646324665,-13.888176703056164 L 82.16983965620628,-11.206038440739327 L 89.99607474058249,-11.19937480216847 L 85.30566460081346,-17.464361052811945 L 83.96173962455323,-14.782222790495108 A 65.99446720870675 65.99446720870675 0 0 0 78.00140755544561,-17.409200726007796"/><text text-anchor="middle" pointer-events="none" font-size="8px" fill="#000000" x="52.462798072066676" y="-18.246002185948967" transform="rotate(180 52.462798072066676 -21.246002185948967)" font-family="sans-serif">PRODUCED</text></g></g><g class="layer nodes"><g class="node" transform="translate(35.46951075003926,275.49083044183595)"><circle class="outline" cx="0" cy="0" r="25" fill="#F79767" stroke="#f36924" stroke-width="2px"/><text text-anchor="middle" pointer-events="none" font-family="sans-serif" dy="1.5625" font-size="25" fill="#FFFFFF"/><text text-anchor="middle" pointer-events="none" font-family="sans-serif" dy="1.5625" font-size="25" fill="#FFFFFF"/><text text-anchor="middle" pointer-events="none" x="0" y="0" font-size="10px" fill="#FFFFFF" font-family="sans-serif"> Cameron</text><text text-anchor="middle" pointer-events="none" x="0" y="10" font-size="10px" fill="#FFFFFF" font-family="sans-serif"> Crowe</text></g><g class="node" transform="translate(144.95177365883148,277.10896010928917)"><circle class="outline" cx="0" cy="0" r="25" fill="#57C7E3" stroke="#23b3d7" stroke-width="2px"/><text text-anchor="middle" pointer-events="none" font-family="sans-serif" dy="1.5625" font-size="25" fill="#2A2C34"/><text text-anchor="middle" pointer-events="none" font-family="sans-serif" dy="1.5625" font-size="25" fill="#2A2C34"/><text text-anchor="middle" pointer-events="none" x="0" y="0" font-size="10px" fill="#2A2C34" font-family="sans-serif"> Jerry</text><text text-anchor="middle" pointer-events="none" x="0" y="10" font-size="10px" fill="#2A2C34" font-family="sans-serif"> Maguire</text></g><g class="node" transform="translate(218.43304990508716,-16.897088406779897)"><circle class="outline" cx="0" cy="0" r="25" fill="#F79767" stroke="#f36924" stroke-width="2px"/><text text-anchor="middle" pointer-events="none" font-family="sans-serif" dy="1.5625" font-size="25" fill="#FFFFFF"/><text text-anchor="middle" pointer-events="none" font-family="sans-serif" dy="1.5625" font-size="25" fill="#FFFFFF"/><text text-anchor="middle" pointer-events="none" x="0" y="0" font-size="10px" fill="#FFFFFF" font-family="sans-serif"> Lilly</text><text text-anchor="middle" pointer-events="none" x="0" y="10" font-size="10px" fill="#FFFFFF" font-family="sans-serif"> Wacho…</text></g><g class="node" transform="translate(120.6279478176931,-62.01133039576904)"><circle class="outline" cx="0" cy="0" r="25" fill="#57C7E3" stroke="#23b3d7" stroke-width="2px"/><text text-anchor="middle" pointer-events="none" font-family="sans-serif" dy="1.5625" font-size="25" fill="#2A2C34"/><text text-anchor="middle" pointer-events="none" font-family="sans-serif" dy="1.5625" font-size="25" fill="#2A2C34"/><text text-anchor="middle" pointer-events="none" x="0" y="0" font-size="10px" fill="#2A2C34" font-family="sans-serif"> Speed</text><text text-anchor="middle" pointer-events="none" x="0" y="10" font-size="10px" fill="#2A2C34" font-family="sans-serif"> Racer</text></g><g class="node" transform="translate(14.503147034797967,-43.373250997159865)"><circle class="outline" cx="0" cy="0" r="25" fill="#F79767" stroke="#f36924" stroke-width="2px"/><text text-anchor="middle" pointer-events="none" font-family="sans-serif" dy="1.5625" font-size="25" fill="#FFFFFF"/><text text-anchor="middle" pointer-events="none" font-family="sans-serif" dy="1.5625" font-size="25" fill="#FFFFFF"/><text text-anchor="middle" pointer-events="none" x="0" y="0" font-size="10px" fill="#FFFFFF" font-family="sans-serif"> Lana</text><text text-anchor="middle" pointer-events="none" x="0" y="10" font-size="10px" fill="#FFFFFF" font-family="sans-serif"> Wacho…</text></g><g class="node" transform="translate(141.03254844865157,120.33557053482645)"><circle class="outline" cx="0" cy="0" r="25" fill="#F79767" stroke="#f36924" stroke-width="2px"/><text text-anchor="middle" pointer-events="none" font-family="sans-serif" dy="1.5625" font-size="25" fill="#FFFFFF"/><text text-anchor="middle" pointer-events="none" font-family="sans-serif" dy="1.5625" font-size="25" fill="#FFFFFF"/><text text-anchor="middle" pointer-events="none" x="0" y="0" font-size="10px" fill="#FFFFFF" font-family="sans-serif"> Nancy</text><text text-anchor="middle" pointer-events="none" x="0" y="10" font-size="10px" fill="#FFFFFF" font-family="sans-serif"> Meyers</text></g><g class="node" transform="translate(28.687652866375196,121.05933478824436)"><circle class="outline" cx="0" cy="0" r="25" fill="#57C7E3" stroke="#23b3d7" stroke-width="2px"/><text text-anchor="middle" pointer-events="none" font-family="sans-serif" dy="1.5625" font-size="25" fill="#2A2C34"/><text text-anchor="middle" pointer-events="none" x="0" y="5" font-size="10px" fill="#2A2C34" font-family="sans-serif"> Somethi…</text></g></g></svg>