<svg xmlns="http://www.w3.org/2000/svg" width="685.4954833984375" height="203.27627563476562" viewBox="-323.6685791015625 -13.073638916015625 685.4954833984375 203.27627563476562"><title>Neo4j Graph Visualization</title><desc>Created using Neo4j (http://www.neo4j.com/)</desc><g class="layer relationships"><g class="relationship" transform="translate(332.8268978171901 24.46144172322193) rotate(525.321110862107)"><path class="outline" fill="#A5ABB6" stroke="none" d="M 21.40063509461097,12.933012701892217 L 21.90063509461097,12.06698729810778 A 170.61544050675656 170.61544050675656 0 0 0 73.96356130867832,31.654870323728147 L 73.76870910807696,32.635702939377126 A 171.61544050675656 171.61544050675656 0 0 1 21.40063509461097,12.933012701892217 Z M 135.33289846755,33.60489557487077 L 135.16901727459606,32.618415491647596 A 170.61544050675656 170.61544050675656 0 0 0 187.82272716282253,14.679065380696416 L 186.40525219850403,12.03505994849128 L 194.2283189986876,11.812291369320775 L 189.71269378191388,18.204405956969932 L 188.29521881759538,15.560400524764797 A 171.61544050675656 171.61544050675656 0 0 1 135.33289846755,33.60489557487077"/><text text-anchor="middle" pointer-events="none" font-size="8px" fill="#000000" x="104.5148531790836" y="38.40392173048991" transform="rotate(180 104.5148531790836 35.40392173048991)" font-family="sans-serif">PublicTransport</text></g><g class="relationship" transform="translate(123.62372570029467 79.26248756391882) rotate(527.8104276447564)"><path class="outline" fill="#A5ABB6" stroke="none" d="M 25 0.5 L 74.93033373835333 0.5 L 74.93033373835333 -0.5 L 25 -0.5 Z M 94.26627123835333 0.5 L 144.19660497670665 0.5 L 144.19660497670665 3.5 L 151.19660497670665 0 L 144.19660497670665 -3.5 L 144.19660497670665 -0.5 L 94.26627123835333 -0.5 Z"/><text text-anchor="middle" pointer-events="none" font-size="8px" fill="#000000" x="84.59830248835333" y="3" transform="rotate(180 84.59830248835333 0)" font-family="sans-serif">trek</text></g><g class="relationship" transform="translate(-48.60041026691418 116.46585563276399) rotate(529.6958053816953)"><path class="outline" fill="#A5ABB6" stroke="none" d="M 25 0.5 L 111.88295007683553 0.5 L 111.88295007683553 -0.5 L 25 -0.5 Z M 131.21888757683553 0.5 L 218.10183765367105 0.5 L 218.10183765367105 3.5 L 225.10183765367105 0 L 218.10183765367105 -3.5 L 218.10183765367105 -0.5 L 131.21888757683553 -0.5 Z"/><text text-anchor="middle" pointer-events="none" font-size="8px" fill="#000000" x="121.55091882683553" y="3" transform="rotate(180 121.55091882683553 0)" font-family="sans-serif">trek</text></g><g class="relationship" transform="translate(332.8268978171901 24.46144172322193) rotate(525.321110862107)"><path class="outline" fill="#A5ABB6" stroke="none" d="M 25 0.5 L 94.96288005019849 0.5 L 94.96288005019849 -0.5 L 25 -0.5 Z M 114.29881755019849 0.5 L 184.26169760039699 0.5 L 184.26169760039699 3.5 L 191.26169760039699 0 L 184.26169760039699 -3.5 L 184.26169760039699 -0.5 L 114.29881755019849 -0.5 Z"/><text text-anchor="middle" pointer-events="none" font-size="8px" fill="#000000" x="104.63084880019849" y="3" transform="rotate(180 104.63084880019849 0)" font-family="sans-serif">trek</text></g><g class="relationship" transform="translate(332.8268978171901 24.46144172322193) rotate(525.321110862107)"><path class="outline" fill="#A5ABB6" stroke="none" d="M 21.40063509461097,-12.933012701892217 L 21.90063509461097,-12.06698729810778 A 170.61544050675656 170.61544050675656 0 0 1 93.56349967316663,-34.378627715951296 L 93.48352534238921,-35.37542463930967 A 171.61544050675656 171.61544050675656 0 0 0 21.40063509461097,-12.933012701892217 Z M 115.54161148230702,-35.722680647426074 L 115.49305375282935,-34.72386026972646 A 170.61544050675656 170.61544050675656 0 0 1 187.82272716282253,-14.679065380696416 L 186.40525219850403,-12.03505994849128 L 194.2283189986876,-11.812291369320775 L 189.71269378191388,-18.204405956969932 L 188.29521881759538,-15.560400524764797 A 171.61544050675656 171.61544050675656 0 0 0 115.54161148230702,-35.722680647426074"/><text text-anchor="middle" pointer-events="none" font-size="8px" fill="#000000" x="104.51485317908357" y="-32.40392173048991" transform="rotate(180 104.51485317908357 -35.40392173048991)" font-family="sans-serif">road</text></g></g><g class="layer nodes"><g class="node" transform="translate(332.8268978171901,24.46144172322193)"><circle class="outline" cx="0" cy="0" r="25" fill="#F79767" stroke="#f36924" stroke-width="2px"/><text text-anchor="middle" pointer-events="none" font-family="sans-serif" dy="1.5625" font-size="25" fill="#FFFFFF"/><text text-anchor="middle" pointer-events="none" x="0" y="5" font-size="10px" fill="#FFFFFF" font-family="sans-serif"> Darjeeling</text></g><g class="node" transform="translate(-294.6685917784655,161.20263295681227)"><circle class="outline" cx="0" cy="0" r="25" fill="#57C7E3" stroke="#23b3d7" stroke-width="2px"/><text text-anchor="middle" pointer-events="none" font-family="sans-serif" dy="1.5625" font-size="25" fill="#2A2C34"/><text text-anchor="middle" pointer-events="none" x="0" y="5" font-size="10px" fill="#2A2C34" font-family="sans-serif"> Sandak…</text></g><g class="node" transform="translate(123.62372570029467,79.26248756391882)"><circle class="outline" cx="0" cy="0" r="25" fill="#F79767" stroke="#f36924" stroke-width="2px"/><text text-anchor="middle" pointer-events="none" font-family="sans-serif" dy="1.5625" font-size="25" fill="#FFFFFF"/><text text-anchor="middle" pointer-events="none" x="0" y="5" font-size="10px" fill="#FFFFFF" font-family="sans-serif"> Rimbik</text></g><g class="node" transform="translate(-48.60041026691418,116.46585563276399)"><circle class="outline" cx="0" cy="0" r="25" fill="#F16667" stroke="#eb2728" stroke-width="2px"/><text text-anchor="middle" pointer-events="none" font-family="sans-serif" dy="1.5625" font-size="25" fill="#FFFFFF"/><text text-anchor="middle" pointer-events="none" x="0" y="5" font-size="10px" fill="#FFFFFF" font-family="sans-serif"> BhikeBh…</text></g></g></svg>