<svg xmlns="http://www.w3.org/2000/svg" width="160.03225708007812" height="242.6938934326172" viewBox="0.9113082885742188 -20.968677520751953 160.03225708007812 242.6938934326172"><title>Neo4j Graph Visualization</title><desc>Created using Neo4j (http://www.neo4j.com/)</desc><g class="layer relationships"><g class="relationship" transform="translate(131.94355446813788 8.031323201365028) rotate(519.468046198708)"><path class="outline" fill="#A5ABB6" stroke="none" d="M 21.40063509461097,12.933012701892217 L 21.90063509461097,12.06698729810778 A 59.9268163481076 59.9268163481076 0 0 0 23.46486523612919,12.939193541535381 L 22.990967576230684,13.81977346859636 A 60.9268163481076 60.9268163481076 0 0 1 21.40063509461097,12.933012701892217 Z M 77.376651865515,15.496807351000228 L 76.95791000230844,14.588702042129995 A 59.9268163481076 59.9268163481076 0 0 0 78.57290776249923,13.814530290328719 L 77.23583367172728,11.12897022289653 L 85.06206026830299,11.142284089766209 L 80.35567321686182,17.39527704690497 L 79.01859912608987,14.70971697947278 A 60.9268163481076 60.9268163481076 0 0 1 77.376651865515,15.496807351000228"/><text text-anchor="middle" pointer-events="none" font-size="8px" fill="#000000" x="50.00161062172581" y="23.566950209682027" transform="rotate(180 50.00161062172581 20.566950209682027)" font-family="sans-serif">PublicTrans…</text></g><g class="relationship" transform="translate(31.326876484727933 45.71432890820689) rotate(450.7601006740473)"><path class="outline" fill="#A5ABB6" stroke="none" d="M 25 0.5 L 40.18581182839495 0.5 L 40.18581182839495 -0.5 L 25 -0.5 Z M 59.52174932839495 0.5 L 74.7075611567899 0.5 L 74.7075611567899 3.5 L 81.7075611567899 0 L 74.7075611567899 -3.5 L 74.7075611567899 -0.5 L 59.52174932839495 -0.5 Z"/><text text-anchor="middle" pointer-events="none" font-size="8px" fill="#000000" x="49.85378057839495" y="3" transform="rotate(180 49.85378057839495 0)" font-family="sans-serif">trek</text></g><g class="relationship" transform="translate(29.91130782024581 152.41250027672749) rotate(382.0407731470149)"><path class="outline" fill="#A5ABB6" stroke="none" d="M 25 0.5 L 40.54417929573548 0.5 L 40.54417929573548 -0.5 L 25 -0.5 Z M 59.88011679573548 0.5 L 75.42429609147096 0.5 L 75.42429609147096 3.5 L 82.42429609147096 0 L 75.42429609147096 -3.5 L 75.42429609147096 -0.5 L 59.88011679573548 -0.5 Z"/><text text-anchor="middle" pointer-events="none" font-size="8px" fill="#000000" x="50.21214804573548" y="3" font-family="sans-serif">trek</text></g><g class="relationship" transform="translate(131.94355446813788 8.031323201365028) rotate(519.468046198708)"><path class="outline" fill="#A5ABB6" stroke="none" d="M 25 0.5 L 40.55289499845226 0.5 L 40.55289499845226 -0.5 L 25 -0.5 Z M 59.88883249845226 0.5 L 75.44172749690452 0.5 L 75.44172749690452 3.5 L 82.44172749690452 0 L 75.44172749690452 -3.5 L 75.44172749690452 -0.5 L 59.88883249845226 -0.5 Z"/><text text-anchor="middle" pointer-events="none" font-size="8px" fill="#000000" x="50.22086374845226" y="3" transform="rotate(180 50.22086374845226 0)" font-family="sans-serif">trek</text></g><g class="relationship" transform="translate(131.94355446813788 8.031323201365028) rotate(519.468046198708)"><path class="outline" fill="#A5ABB6" stroke="none" d="M 21.40063509461097,-12.933012701892217 L 21.90063509461097,-12.06698729810778 A 59.9268163481076 59.9268163481076 0 0 1 39.19818430842044,-18.74186762804404 L 38.98682886302734,-19.719276895292253 A 60.9268163481076 60.9268163481076 0 0 0 21.40063509461097,-12.933012701892217 Z M 61.04769330091419,-20.399544462409068 L 60.896960822463676,-19.410969872436127 A 59.9268163481076 59.9268163481076 0 0 1 78.57290776249923,-13.814530290328719 L 77.23583367172728,-11.12897022289653 L 85.06206026830299,-11.142284089766209 L 80.35567321686182,-17.39527704690497 L 79.01859912608987,-14.70971697947278 A 60.9268163481076 60.9268163481076 0 0 0 61.04769330091419,-20.399544462409068"/><text text-anchor="middle" pointer-events="none" font-size="8px" fill="#000000" x="50.001610621725824" y="-17.566950209682027" transform="rotate(180 50.001610621725824 -20.566950209682027)" font-family="sans-serif">road</text></g></g><g class="layer nodes"><g class="node" transform="translate(131.94355446813788,8.031323201365028)"><circle class="outline" cx="0" cy="0" r="25" fill="#F79767" stroke="#f36924" stroke-width="2px"/><text text-anchor="middle" pointer-events="none" font-family="sans-serif" dy="1.5625" font-size="25" fill="#FFFFFF"/><text text-anchor="middle" pointer-events="none" x="0" y="5" font-size="10px" fill="#FFFFFF" font-family="sans-serif"> Darjeeling</text></g><g class="node" transform="translate(129.48471839422066,192.7252190812767)"><circle class="outline" cx="0" cy="0" r="25" fill="#57C7E3" stroke="#23b3d7" stroke-width="2px"/><text text-anchor="middle" pointer-events="none" font-family="sans-serif" dy="1.5625" font-size="25" fill="#2A2C34"/><text text-anchor="middle" pointer-events="none" x="0" y="5" font-size="10px" fill="#2A2C34" font-family="sans-serif"> Sandak…</text></g><g class="node" transform="translate(31.326876484727933,45.71432890820689)"><circle class="outline" cx="0" cy="0" r="25" fill="#F79767" stroke="#f36924" stroke-width="2px"/><text text-anchor="middle" pointer-events="none" font-family="sans-serif" dy="1.5625" font-size="25" fill="#FFFFFF"/><text text-anchor="middle" pointer-events="none" x="0" y="5" font-size="10px" fill="#FFFFFF" font-family="sans-serif"> Rimbik</text></g><g class="node" transform="translate(29.91130782024581,152.41250027672749)"><circle class="outline" cx="0" cy="0" r="25" fill="#F16667" stroke="#eb2728" stroke-width="2px"/><text text-anchor="middle" pointer-events="none" font-family="sans-serif" dy="1.5625" font-size="25" fill="#FFFFFF"/><text text-anchor="middle" pointer-events="none" x="0" y="5" font-size="10px" fill="#FFFFFF" font-family="sans-serif"> BhikeBh…</text></g></g></svg>