<svg xmlns="http://www.w3.org/2000/svg" width="409.88409423828125" height="397.05194091796875" viewBox="-106.26155853271484 -113.14491271972656 409.88409423828125 397.05194091796875"><title>Neo4j Graph Visualization</title><desc>Created using Neo4j (http://www.neo4j.com/)</desc><g class="layer relationships"><g class="relationship" transform="translate(125.8554051453706 -84.14491420540256) rotate(456.8816480302205)"><path class="outline" fill="#A5ABB6" stroke="none" d="M 21.40063509461097,12.933012701892217 L 21.90063509461097,12.06698729810778 A 64.31948596691863 64.31948596691863 0 0 0 42.61704750328574,19.658015111706028 L 42.439133603590236,20.642061169721174 A 65.31948596691863 65.31948596691863 0 0 1 21.40063509461097,12.933012701892217 Z M 61.8434888001739,21.218810469243962 L 61.724334299692295,20.225934744384617 A 64.31948596691863 64.31948596691863 0 0 0 82.85502868549534,13.878714791766955 L 81.51198387530042,11.196135689893445 L 89.33822072489934,11.192040084957718 L 84.64575509908857,17.4554869275983 L 83.30271028889365,14.772907825724792 A 65.31948596691863 65.31948596691863 0 0 1 61.8434888001739,21.218810469243962"/><text text-anchor="middle" pointer-events="none" font-size="8px" fill="#000000" x="52.13462016392487" y="24.155551441231367" transform="rotate(180 52.13462016392487 21.155551441231367)" font-family="sans-serif">trek</text></g><g class="relationship" transform="translate(112.47247272725785 26.743470095386137) rotate(418.4694031833556)"><path class="outline" fill="#A5ABB6" stroke="none" d="M 25 0.5 L 49.80466656859832 0.5 L 49.80466656859832 -0.5 L 25 -0.5 Z M 69.14060406859832 0.5 L 93.94527063719664 0.5 L 93.94527063719664 3.5 L 100.94527063719664 0 L 93.94527063719664 -3.5 L 93.94527063719664 -0.5 L 69.14060406859832 -0.5 Z"/><text text-anchor="middle" pointer-events="none" font-size="8px" fill="#000000" x="59.47263531859832" y="3" font-family="sans-serif">trek</text></g><g class="relationship" transform="translate(178.3360322354851 134.09430951820067) rotate(482.36475730551933)"><path class="outline" fill="#A5ABB6" stroke="none" d="M 25 0.5 L 47.5015174100832 0.5 L 47.5015174100832 -0.5 L 25 -0.5 Z M 66.83745491008321 0.5 L 89.3389723201664 0.5 L 89.3389723201664 3.5 L 96.3389723201664 0 L 89.3389723201664 -3.5 L 89.3389723201664 -0.5 L 66.83745491008321 -0.5 Z"/><text text-anchor="middle" pointer-events="none" font-size="8px" fill="#000000" x="57.1694861600832" y="3" transform="rotate(180 57.1694861600832 0)" font-family="sans-serif">trek</text></g><g class="relationship" transform="translate(125.8554051453706 -84.14491420540256) rotate(456.8816480302205)"><path class="outline" fill="#A5ABB6" stroke="none" d="M 25 0.5 L 41.34066391192265 0.5 L 41.34066391192265 -0.5 L 25 -0.5 Z M 63.35238266192265 0.5 L 79.6930465738453 0.5 L 79.6930465738453 3.5 L 86.6930465738453 0 L 79.6930465738453 -3.5 L 79.6930465738453 -0.5 L 63.35238266192265 -0.5 Z"/><text text-anchor="middle" pointer-events="none" font-size="8px" fill="#000000" x="52.34652328692265" y="3" transform="rotate(180 52.34652328692265 0)" font-family="sans-serif">road</text></g><g class="relationship" transform="translate(125.8554051453706 -84.14491420540256) rotate(456.8816480302205)"><path class="outline" fill="#A5ABB6" stroke="none" d="M 21.40063509461097,-12.933012701892217 L 21.90063509461097,-12.06698729810778 A 64.31948596691863 64.31948596691863 0 0 1 22.893961595990323,-12.628794576402655 L 22.409405228451725,-13.503554615886507 A 65.31948596691863 65.31948596691863 0 0 0 21.40063509461097,-12.933012701892217 Z M 82.26183482716904,-15.282528794419143 L 81.83008836848776,-14.380533785887401 A 64.31948596691863 64.31948596691863 0 0 1 82.85502868549534,-13.878714791766955 L 81.51198387530042,-11.196135689893445 L 89.33822072489934,-11.192040084957718 L 84.64575509908857,-17.4554869275983 L 83.30271028889365,-14.772907825724792 A 65.31948596691863 65.31948596691863 0 0 0 82.26183482716904,-15.282528794419143"/><text text-anchor="middle" pointer-events="none" font-size="8px" fill="#000000" x="52.13462016392488" y="-18.155551441231367" transform="rotate(180 52.13462016392488 -21.155551441231367)" font-family="sans-serif">PublicTransport</text></g><g class="relationship" transform="translate(125.8554051453706 -84.14491420540256) rotate(393.9115857691578)"><path class="outline" fill="#A5ABB6" stroke="none" d="M 24.018736134675446,-6.953439040707552 L 24.277555179777966,-5.987513214418485 A 107.78221901035116 107.78221901035116 0 0 1 39.54685656804658,-8.917927787150646 L 39.429705615589306,-9.911041906644641 A 108.78221901035116 108.78221901035116 0 0 0 24.018736134675446,-6.953439040707552 Z M 61.502261338135156,-10.259377659838123 L 61.41650637523833,-9.2630614016457 A 107.78221901035116 107.78221901035116 0 0 1 76.77067298146228,-6.815927918939852 L 76.08604168445682,-3.8950924242293707 L 83.70006101862097,-5.7052608083788545 L 77.6835147108029,-10.710375245220494 L 76.99888341379743,-7.789539750510012 A 108.78221901035116 108.78221901035116 0 0 0 61.502261338135156,-10.259377659838123"/><text text-anchor="middle" pointer-events="none" font-size="8px" fill="#000000" x="50.46501430933897" y="-7.14662180875311" font-family="sans-serif">road</text></g><g class="relationship" transform="translate(215.51804179122118 -23.867801725729834) rotate(418.6669400235543)"><path class="outline" fill="#A5ABB6" stroke="none" d="M 21.40063509461097,-12.933012701892217 L 21.90063509461097,-12.06698729810778 A 66.34807877617014 66.34807877617014 0 0 1 30.664163917000486,-16.302229438528407 L 30.29624805544184,-17.232088523988978 A 67.34807877617014 67.34807877617014 0 0 0 21.40063509461097,-12.933012701892217 Z M 76.15234777960879,-18.572663742372498 L 75.83938156468582,-17.62289948303401 A 66.34807877617014 66.34807877617014 0 0 1 84.8353616902116,-13.906845798008527 L 83.48970009353228,-11.22557839858294 L 91.31592922165119,-11.213846638994367 L 86.6295771524507,-17.481868997242643 L 85.28391555577137,-14.800601597817055 A 67.34807877617014 67.34807877617014 0 0 0 76.15234777960879,-18.572663742372498"/><text text-anchor="middle" pointer-events="none" font-size="8px" fill="#000000" x="53.12124607933934" y="-18.427396813715703" font-family="sans-serif">twowheeler</text></g><g class="relationship" transform="translate(274.6225202987944 73.21575126527028) rotate(507.6962727673907)"><path class="outline" fill="#A5ABB6" stroke="none" d="M 21.40063509461097,12.933012701892217 L 21.90063509461097,12.06698729810778 A 66.61410149030914 66.61410149030914 0 0 0 30.788546798803523,16.354447957539314 L 30.421970676111027,17.28483601973258 A 67.61410149030914 67.61410149030914 0 0 1 21.40063509461097,12.933012701892217 Z M 76.2841682465596,18.622705623163696 L 75.9724509872566,17.672530718079045 A 66.61410149030914 66.61410149030914 0 0 0 85.09517946191959,13.910467647731911 L 83.74918095919256,11.229369359593893 L 91.5754085513628,11.216654189391859 L 86.8898441322223,17.48526536524927 L 85.54384562949527,14.80416707711125 A 67.61410149030914 67.61410149030914 0 0 1 76.2841682465596,18.622705623163696"/><text text-anchor="middle" pointer-events="none" font-size="8px" fill="#000000" x="53.250698584753266" y="24.463046579881492" transform="rotate(180 53.250698584753266 21.463046579881492)" font-family="sans-serif">twowheeler</text></g><g class="relationship" transform="translate(274.6225202987944 73.21575126527028) rotate(507.6962727673907)"><path class="outline" fill="#A5ABB6" stroke="none" d="M 25 0.5 L 42.45308776792314 0.5 L 42.45308776792314 -0.5 L 25 -0.5 Z M 64.46480651792314 0.5 L 81.91789428584627 0.5 L 81.91789428584627 3.5 L 88.91789428584627 0 L 81.91789428584627 -3.5 L 81.91789428584627 -0.5 L 64.46480651792314 -0.5 Z"/><text text-anchor="middle" pointer-events="none" font-size="8px" fill="#000000" x="53.45894714292314" y="3" transform="rotate(180 53.45894714292314 0)" font-family="sans-serif">road</text></g><g class="relationship" transform="translate(274.6225202987944 73.21575126527028) rotate(507.6962727673907)"><path class="outline" fill="#A5ABB6" stroke="none" d="M 21.40063509461097,-12.933012701892217 L 21.90063509461097,-12.06698729810778 A 66.61410149030914 66.61410149030914 0 0 1 43.72667426000268,-19.994743771080167 L 43.554323191341446,-20.979779358828807 A 67.61410149030914 67.61410149030914 0 0 0 21.40063509461097,-12.933012701892217 Z M 62.958756520756125,-21.54583600021307 L 62.8441196253431,-20.55242853989779 A 66.61410149030914 66.61410149030914 0 0 1 85.09517946191959,-13.910467647731911 L 83.74918095919256,-11.229369359593893 L 91.5754085513628,-11.216654189391859 L 86.8898441322223,-17.48526536524927 L 85.54384562949527,-14.80416707711125 A 67.61410149030914 67.61410149030914 0 0 0 62.958756520756125,-21.54583600021307"/><text text-anchor="middle" pointer-events="none" font-size="8px" fill="#000000" x="53.25069858475328" y="-18.463046579881492" transform="rotate(180 53.25069858475328 -21.463046579881492)" font-family="sans-serif">trek</text></g><g class="relationship" transform="translate(215.51804179122118 -23.867801725729834) rotate(418.6669400235543)"><path class="outline" fill="#A5ABB6" stroke="none" d="M 25 0.5 L 42.324052733432204 0.5 L 42.324052733432204 -0.5 L 25 -0.5 Z M 64.33577148343221 0.5 L 81.65982421686441 0.5 L 81.65982421686441 3.5 L 88.65982421686441 0 L 81.65982421686441 -3.5 L 81.65982421686441 -0.5 L 64.33577148343221 -0.5 Z"/><text text-anchor="middle" pointer-events="none" font-size="8px" fill="#000000" x="53.329912108432204" y="3" font-family="sans-serif">road</text></g><g class="relationship" transform="translate(215.51804179122118 -23.867801725729834) rotate(418.6669400235543)"><path class="outline" fill="#A5ABB6" stroke="none" d="M 21.40063509461097,12.933012701892217 L 21.90063509461097,12.06698729810778 A 66.34807877617014 66.34807877617014 0 0 0 43.597942889665845,19.955797375652736 L 43.42496528722843,20.94072313379648 A 67.34807877617014 67.34807877617014 0 0 1 21.40063509461097,12.933012701892217 Z M 62.82939809743089,21.50799993903327 L 62.714254150407434,20.51465112242157 A 66.34807877617014 66.34807877617014 0 0 0 84.8353616902116,13.906845798008527 L 83.48970009353228,11.22557839858294 L 91.31592922165119,11.213846638994367 L 86.6295771524507,17.481868997242643 L 85.28391555577137,14.800601597817055 A 67.34807877617014 67.34807877617014 0 0 1 62.82939809743089,21.50799993903327"/><text text-anchor="middle" pointer-events="none" font-size="8px" fill="#000000" x="53.121246079339365" y="24.427396813715703" font-family="sans-serif">trek</text></g><g class="relationship" transform="translate(125.8554051453706 -84.14491420540256) rotate(393.9115857691578)"><path class="outline" fill="#A5ABB6" stroke="none" d="M 24.018736134675446,6.953439040707552 L 24.277555179777966,5.987513214418485 A 107.78221901035116 107.78221901035116 0 0 0 40.870329527509114,9.065764950214998 L 40.76545771507711,10.06025069820599 A 108.78221901035116 108.78221901035116 0 0 1 24.018736134675446,6.953439040707552 Z M 60.162466144126476,10.366362578758725 L 60.089027488124266,9.369062842568752 A 107.78221901035116 107.78221901035116 0 0 0 76.77067298146228,6.815927918939852 L 76.08604168445682,3.8950924242293707 L 83.70006101862097,5.7052608083788545 L 77.6835147108029,10.710375245220494 L 76.99888341379743,7.789539750510012 A 108.78221901035116 108.78221901035116 0 0 1 60.162466144126476,10.366362578758725"/><text text-anchor="middle" pointer-events="none" font-size="8px" fill="#000000" x="50.46501430933898" y="13.14662180875311" font-family="sans-serif">trek</text></g><g class="relationship" transform="translate(112.47247272725785 26.743470095386137) rotate(525.7629895074085)"><path class="outline" fill="#A5ABB6" stroke="none" d="M 24.018736134675446,-6.953439040707552 L 24.277555179777966,-5.987513214418485 A 138.47568069961446 138.47568069961446 0 0 1 35.179329193993865,-8.44184718280954 L 34.9992371423904,-9.425496944131737 A 139.47568069961446 139.47568069961446 0 0 0 24.018736134675446,-6.953439040707552 Z M 81.40986992415631,-10.071159630448676 L 81.25721125858121,-9.082880655753371 A 138.47568069961446 138.47568069961446 0 0 1 92.22304213427587,-6.932767846830853 L 91.52749740013127,-4.014511942561367 L 99.1482300332621,-5.796206117871693 L 93.15043511313533,-10.823775719190166 L 92.45489037899073,-7.905519814920682 A 139.47568069961446 139.47568069961446 0 0 0 81.40986992415631,-10.071159630448676"/><text text-anchor="middle" pointer-events="none" font-size="8px" fill="#000000" x="58.18446213074769" y="-8.192510713268888" transform="rotate(180 58.18446213074769 -11.192510713268888)" font-family="sans-serif">twowheeler</text></g><g class="relationship" transform="translate(-7.202475380711162 57.10815523448577) rotate(432.6086641032364)"><path class="outline" fill="#A5ABB6" stroke="none" d="M 24.018736134675446,-6.953439040707552 L 24.277555179777966,-5.987513214418485 A 112.58957787484239 112.58957787484239 0 0 1 28.74974829589858,-7.088308957132043 L 28.53065045057791,-8.064011849500318 A 113.58957787484239 113.58957787484239 0 0 0 24.018736134675446,-6.953439040707552 Z M 74.86781347961309,-8.780253885670703 L 74.67897633744668,-7.798245467306373 A 112.58957787484239 112.58957787484239 0 0 1 79.18305520583965,-6.836197608648198 L 78.49653056976791,-3.915806551945934 L 86.11172177749023,-5.721038633931176 L 80.09842138726864,-10.730052350917882 L 79.4118967511969,-7.809661294215618 A 113.58957787484239 113.58957787484239 0 0 0 74.86781347961309,-8.780253885670703"/><text text-anchor="middle" pointer-events="none" font-size="8px" fill="#000000" x="51.67004463420883" y="-7.31040253255685" font-family="sans-serif">twowheeler</text></g><g class="relationship" transform="translate(25.810138125115376 162.50738386805529) rotate(400.2276579092618)"><path class="outline" fill="#A5ABB6" stroke="none" d="M 24.018736134675446,6.953439040707552 L 24.277555179777966,5.987513214418485 A 121.06344748965037 121.06344748965037 0 0 0 30.844649941116575,7.552292109186183 L 30.640075962526804,8.531143214964757 A 122.06344748965037 122.06344748965037 0 0 1 24.018736134675446,6.953439040707552 Z M 77.00738030711801,9.22275878824783 L 76.83209196575714,8.238241649045591 A 121.06344748965037 121.06344748965037 0 0 0 83.44293534127742,6.870025124423013 L 82.75325100973411,3.9503786521898303 L 90.37039116507873,5.747369429527509 L 84.36251445000183,10.76288708740059 L 83.67283011845852,7.8432406151674074 A 122.06344748965037 122.06344748965037 0 0 1 77.00738030711801,9.22275878824783"/><text text-anchor="middle" pointer-events="none" font-size="8px" fill="#000000" x="53.798040092364765" y="13.599129229890437" font-family="sans-serif">twowheeler</text></g><g class="relationship" transform="translate(25.810138125115376 162.50738386805529) rotate(400.2276579092618)"><path class="outline" fill="#A5ABB6" stroke="none" d="M 24.018736134675446,-6.953439040707552 L 24.277555179777966,-5.987513214418485 A 121.06344748965037 121.06344748965037 0 0 1 44.194217222113664,-9.573115388485377 L 44.09991242516221,-10.56865876035421 A 122.06344748965037 122.06344748965037 0 0 0 24.018736134675446,-6.953439040707552 Z M 63.49276208696704,-10.857922866301877 L 63.42819172464161,-9.860009709604782 A 121.06344748965037 121.06344748965037 0 0 1 83.44293534127742,-6.870025124423013 L 82.75325100973411,-3.9503786521898303 L 90.37039116507873,-5.747369429527509 L 84.36251445000183,-10.76288708740059 L 83.67283011845852,-7.8432406151674074 A 122.06344748965037 122.06344748965037 0 0 0 63.49276208696704,-10.857922866301877"/><text text-anchor="middle" pointer-events="none" font-size="8px" fill="#000000" x="53.79804009236473" y="-7.599129229890423" font-family="sans-serif">trek</text></g><g class="relationship" transform="translate(-7.202475380711162 57.10815523448577) rotate(432.6086641032364)"><path class="outline" fill="#A5ABB6" stroke="none" d="M 24.018736134675446,6.953439040707552 L 24.277555179777966,5.987513214418485 A 112.58957787484239 112.58957787484239 0 0 0 42.07177137985324,9.250754251326867 L 41.97099730246394,10.245663586556134 A 113.58957787484239 113.58957787484239 0 0 1 24.018736134675446,6.953439040707552 Z M 61.366459277968765,10.545462803204245 L 61.29648298953774,9.547914148221736 A 112.58957787484239 112.58957787484239 0 0 0 79.18305520583965,6.836197608648198 L 78.49653056976791,3.915806551945934 L 86.11172177749023,5.721038633931176 L 80.09842138726864,10.730052350917882 L 79.4118967511969,7.809661294215618 A 113.58957787484239 113.58957787484239 0 0 1 61.366459277968765,10.545462803204245"/><text text-anchor="middle" pointer-events="none" font-size="8px" fill="#000000" x="51.67004463420888" y="13.31040253255685" font-family="sans-serif">trek</text></g><g class="relationship" transform="translate(112.47247272725785 26.743470095386137) rotate(525.7629895074085)"><path class="outline" fill="#A5ABB6" stroke="none" d="M 24.018736134675446,6.953439040707552 L 24.277555179777966,5.987513214418485 A 138.47568069961446 138.47568069961446 0 0 0 48.57159007412454,10.223760536933725 L 48.48821002864713,11.220278358157316 A 139.47568069961446 139.47568069961446 0 0 1 24.018736134675446,6.953439040707552 Z M 67.87618922992735,11.490003073875329 L 67.82056311243764,10.491551405013468 A 138.47568069961446 138.47568069961446 0 0 0 92.22304213427587,6.932767846830853 L 91.52749740013127,4.014511942561367 L 99.1482300332621,5.796206117871693 L 93.15043511313533,10.823775719190166 L 92.45489037899073,7.905519814920682 A 139.47568069961446 139.47568069961446 0 0 1 67.87618922992735,11.490003073875329"/><text text-anchor="middle" pointer-events="none" font-size="8px" fill="#000000" x="58.184462130747704" y="14.192510713268888" transform="rotate(180 58.184462130747704 11.192510713268888)" font-family="sans-serif">trek</text></g><g class="relationship" transform="translate(112.47247272725785 26.743470095386137) rotate(333.84183984783976)"><path class="outline" fill="#A5ABB6" stroke="none" d="M 25 0.5 L 44.23388256828704 0.5 L 44.23388256828704 -0.5 L 25 -0.5 Z M 63.56982006828704 0.5 L 82.80370263657407 0.5 L 82.80370263657407 3.5 L 89.80370263657407 0 L 82.80370263657407 -3.5 L 82.80370263657407 -0.5 L 63.56982006828704 -0.5 Z"/><text text-anchor="middle" pointer-events="none" font-size="8px" fill="#000000" x="53.90185131828704" y="3" font-family="sans-serif">trek</text></g><g class="relationship" transform="translate(-7.202475380711162 57.10815523448577) rotate(486.1726576049673)"><path class="outline" fill="#A5ABB6" stroke="none" d="M 24.018736134675446,-6.953439040707552 L 24.277555179777966,-5.987513214418485 A 129.01546194491166 129.01546194491166 0 0 1 32.81982014317488,-7.967897927372817 L 32.627212270242126,-8.949173733293009 A 130.01546194491166 130.01546194491166 0 0 0 24.018736134675446,-6.953439040707552 Z M 79.01685581500296,-9.619066711222615 L 78.85266271326074,-8.632638495212817 A 129.01546194491166 129.01546194491166 0 0 1 87.44854963113772,-6.899738494851286 L 86.75608993665476,-3.9807490170496678 L 94.37493502842199,-5.770497454024652 L 88.37182922378166,-10.791724465253445 L 87.6793695292987,-7.872734987451826 A 130.01546194491166 130.01546194491166 0 0 0 79.01685581500296,-9.619066711222615"/><text text-anchor="middle" pointer-events="none" font-size="8px" fill="#000000" x="55.79913149174372" y="-7.870106650743708" transform="rotate(180 55.79913149174372 -10.870106650743708)" font-family="sans-serif">twowheeler</text></g><g class="relationship" transform="translate(-77.26155945642097 152.92766524068182) rotate(415.1495471219463)"><path class="outline" fill="#A5ABB6" stroke="none" d="M 25 0.5 L 48.965594487603035 0.5 L 48.965594487603035 -0.5 L 25 -0.5 Z M 68.30153198760303 0.5 L 92.26712647520607 0.5 L 92.26712647520607 3.5 L 99.26712647520607 0 L 92.26712647520607 -3.5 L 92.26712647520607 -0.5 L 68.30153198760303 -0.5 Z"/><text text-anchor="middle" pointer-events="none" font-size="8px" fill="#000000" x="58.633563237603035" y="3" font-family="sans-serif">trek</text></g><g class="relationship" transform="translate(-6.250796991861683 254.9070275479977) rotate(351.2923193995359)"><path class="outline" fill="#A5ABB6" stroke="none" d="M 25 0.5 L 47.34613388803739 0.5 L 47.34613388803739 -0.5 L 25 -0.5 Z M 66.6820713880374 0.5 L 89.02820527607479 0.5 L 89.02820527607479 3.5 L 96.02820527607479 0 L 89.02820527607479 -3.5 L 89.02820527607479 -0.5 L 66.6820713880374 -0.5 Z"/><text text-anchor="middle" pointer-events="none" font-size="8px" fill="#000000" x="57.01410263803739" y="3" font-family="sans-serif">trek</text></g><g class="relationship" transform="translate(-77.26155945642097 152.92766524068182) rotate(365.3099458944511)"><path class="outline" fill="#A5ABB6" stroke="none" d="M 21.40063509461097,12.933012701892217 L 21.90063509461097,12.06698729810778 A 55.8601710202279 55.8601710202279 0 0 0 25.82847303167668,14.131227318922356 L 25.398788568942816,15.034206423046655 A 56.8601710202279 56.8601710202279 0 0 1 21.40063509461097,12.933012701892217 Z M 70.9362984073577,16.48870587582676 L 70.56511454659997,15.560146485419779 A 55.8601710202279 55.8601710202279 0 0 0 74.61667833537255,13.750774055848725 L 73.28553537906086,11.062269186992845 L 81.11171352208822,11.09285796926409 L 76.39153561045481,17.33544721432323 L 75.06039265414312,14.64694234546735 A 56.8601710202279 56.8601710202279 0 0 1 70.9362984073577,16.48870587582676"/><text text-anchor="middle" pointer-events="none" font-size="8px" fill="#000000" x="48.03145547188788" y="23.022103595947" font-family="sans-serif">twowheeler</text></g><g class="relationship" transform="translate(-77.26155945642097 152.92766524068182) rotate(365.3099458944511)"><path class="outline" fill="#A5ABB6" stroke="none" d="M 25 0.5 L 37.25210100627693 0.5 L 37.25210100627693 -0.5 L 25 -0.5 Z M 59.26381975627693 0.5 L 71.51592076255386 0.5 L 71.51592076255386 3.5 L 78.51592076255386 0 L 71.51592076255386 -3.5 L 71.51592076255386 -0.5 L 59.26381975627693 -0.5 Z"/><text text-anchor="middle" pointer-events="none" font-size="8px" fill="#000000" x="48.25796038127693" y="3" font-family="sans-serif">road</text></g><g class="relationship" transform="translate(-77.26155945642097 152.92766524068182) rotate(365.3099458944511)"><path class="outline" fill="#A5ABB6" stroke="none" d="M 21.40063509461097,-12.933012701892217 L 21.90063509461097,-12.06698729810778 A 55.8601710202279 55.8601710202279 0 0 1 38.54317646403855,-18.398521121008557 L 38.34110862331176,-19.377892647929784 A 56.8601710202279 56.8601710202279 0 0 0 21.40063509461097,-12.933012701892217 Z M 57.74316128171487,-19.997607583476217 L 57.60400516355661,-19.007337128106002 A 55.8601710202279 55.8601710202279 0 0 1 74.61667833537255,-13.750774055848725 L 73.28553537906086,-11.062269186992845 L 81.11171352208822,-11.09285796926409 L 76.39153561045481,-17.33544721432323 L 75.06039265414312,-14.64694234546735 A 56.8601710202279 56.8601710202279 0 0 0 57.74316128171487,-19.997607583476217"/><text text-anchor="middle" pointer-events="none" font-size="8px" fill="#000000" x="48.03145547188788" y="-17.022103595947" font-family="sans-serif">trek</text></g><g class="relationship" transform="translate(-7.202475380711162 57.10815523448577) rotate(486.1726576049673)"><path class="outline" fill="#A5ABB6" stroke="none" d="M 24.018736134675446,6.953439040707552 L 24.277555179777966,5.987513214418485 A 129.01546194491166 129.01546194491166 0 0 0 46.190838152612315,9.871984265152435 L 46.10186915991817,10.868018661315034 A 130.01546194491166 130.01546194491166 0 0 1 24.018736134675446,6.953439040707552 Z M 65.49241061527876,11.148029167251906 L 65.43223933522921,10.14984110027396 A 129.01546194491166 129.01546194491166 0 0 0 87.44854963113772,6.899738494851286 L 86.75608993665476,3.9807490170496678 L 94.37493502842199,5.770497454024652 L 88.37182922378166,10.791724465253445 L 87.6793695292987,7.872734987451826 A 130.01546194491166 130.01546194491166 0 0 1 65.49241061527876,11.148029167251906"/><text text-anchor="middle" pointer-events="none" font-size="8px" fill="#000000" x="55.799131491743715" y="13.870106650743708" transform="rotate(180 55.799131491743715 10.870106650743708)" font-family="sans-serif">trek</text></g></g><g class="layer nodes"><g class="node" transform="translate(125.8554051453706,-84.14491420540256)"><circle class="outline" cx="0" cy="0" r="25" fill="#F79767" stroke="#f36924" stroke-width="2px"/><text text-anchor="middle" pointer-events="none" font-family="sans-serif" dy="1.5625" font-size="25" fill="#FFFFFF"/><text text-anchor="middle" pointer-events="none" x="0" y="5" font-size="10px" fill="#FFFFFF" font-family="sans-serif"> Darjeeling</text></g><g class="node" transform="translate(113.38238891773977,236.5841647403895)"><circle class="outline" cx="0" cy="0" r="25" fill="#57C7E3" stroke="#23b3d7" stroke-width="2px"/><text text-anchor="middle" pointer-events="none" font-family="sans-serif" dy="1.5625" font-size="25" fill="#2A2C34"/><text text-anchor="middle" pointer-events="none" x="0" y="5" font-size="10px" fill="#2A2C34" font-family="sans-serif"> Sandak…</text></g><g class="node" transform="translate(112.47247272725785,26.743470095386137)"><circle class="outline" cx="0" cy="0" r="25" fill="#F79767" stroke="#f36924" stroke-width="2px"/><text text-anchor="middle" pointer-events="none" font-family="sans-serif" dy="1.5625" font-size="25" fill="#FFFFFF"/><text text-anchor="middle" pointer-events="none" x="0" y="5" font-size="10px" fill="#FFFFFF" font-family="sans-serif"> Rimbik</text></g><g class="node" transform="translate(178.3360322354851,134.09430951820067)"><circle class="outline" cx="0" cy="0" r="25" fill="#F16667" stroke="#eb2728" stroke-width="2px"/><text text-anchor="middle" pointer-events="none" font-family="sans-serif" dy="1.5625" font-size="25" fill="#FFFFFF"/><text text-anchor="middle" pointer-events="none" x="0" y="5" font-size="10px" fill="#FFFFFF" font-family="sans-serif"> BhikeBh…</text></g><g class="node" transform="translate(215.51804179122118,-23.867801725729834)"><circle class="outline" cx="0" cy="0" r="25" fill="#F16667" stroke="#eb2728" stroke-width="2px"/><text text-anchor="middle" pointer-events="none" font-family="sans-serif" dy="1.5625" font-size="25" fill="#FFFFFF"/><text text-anchor="middle" pointer-events="none" x="0" y="5" font-size="10px" fill="#FFFFFF" font-family="sans-serif"> Tumbling</text></g><g class="node" transform="translate(274.6225202987944,73.21575126527028)"><circle class="outline" cx="0" cy="0" r="25" fill="#F16667" stroke="#eb2728" stroke-width="2px"/><text text-anchor="middle" pointer-events="none" font-family="sans-serif" dy="1.5625" font-size="25" fill="#FFFFFF"/><text text-anchor="middle" pointer-events="none" x="0" y="5" font-size="10px" fill="#FFFFFF" font-family="sans-serif"> Gairibus</text></g><g class="node" transform="translate(-7.202475380711162,57.10815523448577)"><circle class="outline" cx="0" cy="0" r="25" fill="#F16667" stroke="#eb2728" stroke-width="2px"/><text text-anchor="middle" pointer-events="none" font-family="sans-serif" dy="1.5625" font-size="25" fill="#FFFFFF"/><text text-anchor="middle" pointer-events="none" x="0" y="5" font-size="10px" fill="#FFFFFF" font-family="sans-serif"> Sirikhola</text></g><g class="node" transform="translate(25.810138125115376,162.50738386805529)"><circle class="outline" cx="0" cy="0" r="25" fill="#F16667" stroke="#eb2728" stroke-width="2px"/><text text-anchor="middle" pointer-events="none" font-family="sans-serif" dy="1.5625" font-size="25" fill="#FFFFFF"/><text text-anchor="middle" pointer-events="none" x="0" y="5" font-size="10px" fill="#FFFFFF" font-family="sans-serif"> Gurdum</text></g><g class="node" transform="translate(-77.26155945642097,152.92766524068182)"><circle class="outline" cx="0" cy="0" r="25" fill="#F16667" stroke="#eb2728" stroke-width="2px"/><text text-anchor="middle" pointer-events="none" font-family="sans-serif" dy="1.5625" font-size="25" fill="#FFFFFF"/><text text-anchor="middle" pointer-events="none" x="0" y="5" font-size="10px" fill="#FFFFFF" font-family="sans-serif"> Rammam</text></g><g class="node" transform="translate(-6.250796991861683,254.9070275479977)"><circle class="outline" cx="0" cy="0" r="25" fill="#57C7E3" stroke="#23b3d7" stroke-width="2px"/><text text-anchor="middle" pointer-events="none" font-family="sans-serif" dy="1.5625" font-size="25" fill="#2A2C34"/><text text-anchor="middle" pointer-events="none" x="0" y="5" font-size="10px" fill="#2A2C34" font-family="sans-serif"> Sabargr…</text></g></g></svg>